<?xml version="1.0" standalone="no"?>
<!DOCTYPE svg PUBLIC "-//W3C//DTD SVG 1.1//EN" "http://www.w3.org/Graphics/SVG/1.1/DTD/svg11.dtd" >
<svg xmlns="http://www.w3.org/2000/svg">
<metadata>
Created by FontForge 20120731 at Thu Dec 24 11:31:51 2015
 By Ads
</metadata>
<defs>
<font id="iconfont" horiz-adv-x="1024" >
  <font-face 
    font-family="iconfont"
    font-weight="500"
    font-stretch="normal"
    units-per-em="1024"
    panose-1="2 0 6 3 0 0 0 0 0 0"
    ascent="896"
    descent="-128"
    x-height="792"
    bbox="-0.0833333 -224 3272 896"
    underline-thickness="50"
    underline-position="-100"
    unicode-range="U+0078-E620"
  />
<missing-glyph horiz-adv-x="374" 
d="M34 0v682h272v-682h-272zM68 34h204v614h-204v-614z" />
    <glyph glyph-name=".notdef" horiz-adv-x="374" 
d="M34 0v682h272v-682h-272zM68 34h204v614h-204v-614z" />
    <glyph glyph-name=".null" horiz-adv-x="0" 
 />
    <glyph glyph-name="nonmarkingreturn" horiz-adv-x="341" 
 />
    <glyph glyph-name="x" unicode="x" horiz-adv-x="1001" 
d="M281 543q-27 -1 -53 -1h-83q-18 0 -36.5 -6t-32.5 -18.5t-23 -32t-9 -45.5v-76h912v41q0 16 -0.5 30t-0.5 18q0 13 -5 29t-17 29.5t-31.5 22.5t-49.5 9h-133v-97h-438v97zM955 310v-52q0 -23 0.5 -52t0.5 -58t-10.5 -47.5t-26 -30t-33 -16t-31.5 -4.5q-14 -1 -29.5 -0.5
t-29.5 0.5h-32l-45 128h-439l-44 -128h-29h-34q-20 0 -45 1q-25 0 -41 9.5t-25.5 23t-13.5 29.5t-4 30v167h911zM163 247q-12 0 -21 -8.5t-9 -21.5t9 -21.5t21 -8.5q13 0 22 8.5t9 21.5t-9 21.5t-22 8.5zM316 123q-8 -26 -14 -48q-5 -19 -10.5 -37t-7.5 -25t-3 -15t1 -14.5
t9.5 -10.5t21.5 -4h37h67h81h80h64h36q23 0 34 12t2 38q-5 13 -9.5 30.5t-9.5 34.5q-5 19 -11 39h-368zM336 498v228q0 11 2.5 23t10 21.5t20.5 15.5t34 6h188q31 0 51.5 -14.5t20.5 -52.5v-227h-327z" />
    <glyph glyph-name="uniE600" unicode="&#xe600;" 
d="M639 256q59 35 94 96t35 133q0 110 -76.5 187.5t-185 77.5t-185 -77.5t-76.5 -187.5q0 -73 36.5 -135t96.5 -96q-120 -40 -199.5 -139t-91.5 -228q-1 -14 8 -25t24 -13q7 0 13.5 2t11.5 6t8.5 10.5t3.5 13.5q13 139 115 232t241.5 93t241.5 -93t114 -232q1 -7 4 -13
t7.5 -10t10.5 -6.5t13 -2.5h3q14 2 23.5 13t7.5 25q-11 132 -93 232t-205 137zM314 485q0 81 56.5 138.5t136.5 57.5q52 0 96 -26.5t70 -71.5t26 -98q0 -81 -56.5 -138.5t-136 -57.5t-136 57.5t-56.5 138.5z" />
    <glyph glyph-name="uniE601" unicode="&#xe601;" 
d="M310 318q-2 0 -3 -0.5t-2 -0.5q2 1 5 1zM845 104v2q0 1 1 1q-1 0 -1 -3zM881 499zM845 499zM867 -37q-8 56 -33 107l-10 20q-24 40 -58 74l-16 14q-56 49 -126 71q13 7 24 16q7 5 13 10.5t12 10.5q64 65 64 155.5t-64 154.5q-30 31 -69.5 47.5t-82.5 17.5h-2h-3
q-89 -2 -152 -65q-20 -20 -34.5 -45t-22 -52.5t-7.5 -57.5q0 -90 64 -155q12 -11 25 -21q4 -3 8 -5l8 -6q4 -2 8 -5q-70 -22 -126 -71q-8 -7 -15 -14q-34 -34 -58 -74q-6 -10 -11 -20q-25 -51 -32 -107q-2 -9 3.5 -16.5t14.5 -8.5h3h3q15 3 17 18q15 104 91 180
q43 44 99 68.5t117 24.5q25 0 49 -4t46.5 -12t43.5 -19.5t40.5 -25.5t36.5 -32q36 -36 59.5 -82.5t30.5 -97.5q2 -15 17 -18h3h3q6 1 10.5 4.5t6.5 9t2 11.5zM518 266h-1q-61 1 -110.5 38.5t-64.5 95.5v2q-5 20 -5 39.5t5 39.5v3q15 59 65 99.5t111 40.5h1q61 0 111 -40.5
t65 -99.5q1 -2 1 -3q5 -20 5 -39.5t-5 -39.5q-1 -1 -1 -2q-10 -38 -35.5 -68.5t-62 -48t-77.5 -17.5h-2z" />
    <glyph glyph-name="uniE602" unicode="&#xe602;" 
d="M508 -214q-8 9 -21.5 24.5t-53 63.5t-75.5 95.5t-80 112t-75.5 121t-53 115.5t-21.5 102q0 103 51 190.5t138.5 138.5t191 51t191 -51t138.5 -138.5t51 -190.5q0 -158 -264 -494q-65 -83 -117 -140zM508.5 751q-67.5 0 -129 -26.5t-106 -71.5t-70.5 -107.5t-26 -130.5
q0 -52 35.5 -131t79.5 -146t101 -141.5t79.5 -101t35.5 -41.5q14 15 36 41.5t79.5 101t101 141.5t79.5 146t36 131q0 68 -26.5 130.5t-70.5 107.5t-105.5 71.5t-129 26.5zM508 293q-43 0 -79.5 21t-57.5 57.5t-21 79.5q0 66 46.5 112.5t112 46.5t112 -46.5t46.5 -112
t-46.5 -112t-112.5 -46.5zM508 566q-31 0 -58 -15.5t-43 -42.5t-16 -59q0 -49 34.5 -83t82.5 -34q32 0 59 15.5t42.5 42.5t15.5 59q0 10 -1.5 19t-4.5 18t-7 17t-9.5 15t-11.5 13.5t-13.5 12t-15.5 9.5t-16.5 7t-18 4.5t-19.5 1.5z" />
    <glyph glyph-name="uniE603" unicode="&#xe603;" 
d="M512 812q-139 0 -257 -68.5t-186.5 -186.5t-68.5 -257t68.5 -257t186.5 -186.5t257 -68.5t257 68.5t186.5 186.5t68.5 257t-68.5 257t-186.5 186.5t-257 68.5zM512 -162q-94 0 -179.5 36.5t-147.5 98.5t-98.5 147.5t-36.5 179.5t36.5 179.5t98.5 147.5t147.5 98.5
t179.5 36.5t179.5 -36.5t147.5 -98.5t98.5 -147.5t36.5 -179.5t-36.5 -179.5t-98.5 -147.5t-147.5 -98.5t-179.5 -36.5zM791 280v10h171l1 10q0 4 -1 10h-171v10q-2 111 -26 209l-3 9l9 3q28 9 51 19.5t41 20.5q-6 8 -14 17q-36 -21 -83 -37l-9 -3l-3 10q-26 85 -66 146
q-3 1 -5 2t-4.5 2t-4.5 2t-4.5 2t-5 1.5t-4.5 1.5t-4.5 1.5t-4.5 1.5q25 -32 45.5 -74t36.5 -93l3 -9l-10 -3q-22 -6 -45.5 -11t-47.5 -8t-49.5 -5t-51.5 -3h-10v228q-6 1 -9.5 1t-10.5 -1v-228h-10q-52 1 -101 8t-93 19l-10 3l3 9q32 102 82 167q-19 -6 -37 -14
q-40 -61 -66 -146l-3 -10l-9 4q-46 15 -83 36q-3 -3 -5 -5.5t-4.5 -5.5t-4.5 -6q18 -10 41 -20.5t51 -19.5l9 -3l-3 -9q-24 -98 -26 -209v-10h-171q-1 -6 -1 -10t1 -10h171v-10q2 -112 27 -211l2 -9l-8 -3q-51 -17 -92 -40q3 -4 6.5 -8t7.5 -8q37 20 82 36l10 3l3 -9
q25 -85 65 -145q19 -8 37 -14q-50 64 -81 165l-3 10l9 2q89 25 194 27h10v-226q6 -1 10 -1l10 1v226h10q104 -2 194 -27l9 -3l-3 -9q-31 -101 -81 -165q18 6 37 14q19 30 36 66.5t29 77.5l3 10l10 -3q22 -8 43 -17t39 -19q4 4 7.5 8t6.5 8q-41 23 -92 40l-8 3l2 9
q25 99 27 211zM502 97h-10q-108 -3 -200 -28l-9 -2l-2 9q-25 97 -27 204v10h248v-193zM502 310h-248v10q2 106 26 202l2 9l10 -2q46 -13 96 -20t104 -8h10v-191zM522 501h10q108 3 200 28l10 2l2 -9q24 -96 26 -202v-10h-248v191zM743 76l-2 -9l-9 2q-46 13 -96 20t-104 8
h-10v193h248v-10q-2 -107 -27 -204z" />
    <glyph glyph-name="uniE604" unicode="&#xe604;" 
d="M511 749q-73 0 -140.5 -23t-122.5 -64.5t-96 -96.5t-63.5 -124t-22.5 -142t22.5 -141.5t63.5 -124t96 -97t122.5 -64t140.5 -22.5q90 0 172.5 35.5t142 95.5t94.5 143.5t35 175t-35 174.5t-94.5 143.5t-142 96t-172.5 35.5zM803 3q-57 -58 -131 -90q-77 -33 -161 -33
t-161 33q-37 16 -70 38.5t-62 51.5q-11 11 -21.5 23.5t-20 25.5t-18 26.5t-15.5 28t-14 29.5q-5 13 -9.5 26t-8 26.5t-6.5 27t-4.5 27.5t-2.5 28t-1 28q0 86 32 163q32 76 89 134t132 89q19 8 38.5 14.5t39.5 10.5t41 6t42 2q42 0 82 -8t79 -25q37 -16 70 -38.5t61.5 -51
t50.5 -62t38 -71.5q32 -77 32 -163q0 -42 -8 -83t-24 -80q-10 -25 -23.5 -48t-30 -44.5t-35.5 -40.5zM791 77v1q-22 115 -119 181q-20 14 -41.5 24t-44.5 16q11 7 20.5 14.5t18 16.5t16 19t13 21.5t9.5 23.5t6 25t2 26q0 70 -49 119t-118.5 49t-119 -49t-49.5 -119
q0 -48 25 -88t67 -61q-17 -5 -33 -12.5t-30.5 -16.5t-28.5 -19.5t-26 -23.5q-30 -30 -49.5 -67.5t-27.5 -78.5v-4q0 -6 4.5 -10.5t10.5 -4.5t10 3t5 9q14 76 70 132.5t133 70.5q15 3 31 4h7h7h8q12 0 24 -1.5t24 -4t23.5 -6t22.5 -8.5t22 -11t21 -13q42 -29 69.5 -70.5
t36.5 -91.5v-1q3 -12 15 -12q6 0 10.5 4.5t4.5 11.5v2zM366 445q0 19 5 37t14 33t21.5 27.5t27.5 21.5t33 14t36 5q57 0 97 -40.5t40 -97.5q0 -53 -35.5 -92t-87.5 -44h-22q-54 3 -91.5 42.5t-37.5 93.5z" />
    <glyph glyph-name="uniE605" unicode="&#xe605;" 
d="M877 -140l-729 -1q-31 0 -53.5 22t-23.5 54l-1 575q0 32 22.5 54.5t54.5 22.5l230 1v-39h-230q-26 0 -36 -24l-2 -14l1 -576q0 -16 11 -27t27 -11l729 1q16 0 27 11.5t11 27.5l-1 575q0 16 -11 27t-27 11h-230v38l230 1q31 0 53.5 -22.5t23.5 -54.5l1 -575
q0 -32 -22.5 -54.5t-54.5 -22.5v0zM589 320h191q8 0 14 -5.5t6 -13.5q0 -5 -3 -9.5t-7 -7t-10 -2.5l-191 -1q-8 0 -14 5.5t-6 13.5t6 14t14 6v0zM589 90h77q8 0 13.5 -6t5.5 -13.5t-5.5 -13.5t-13.5 -6h-77q-8 0 -13.5 5.5t-5.5 13.5t5.5 14t13.5 6v0zM589 205h192
q5 0 9.5 -2.5t7 -7t2.5 -9.5q0 -8 -5.5 -13.5t-13.5 -5.5l-192 -1q-8 0 -13.5 5.5t-5.5 13.5t5.5 14t13.5 6v0zM358 396q48 0 81.5 -45t34.5 -108q0 -48 -20 -87q18 -10 28.5 -27.5t10.5 -39.5q0 -31 -22.5 -53.5t-53.5 -23.5h-116q-31 0 -53.5 22.5t-22.5 54.5q0 44 39 67
q-20 39 -21 86q0 64 34 109t81 45v0zM358 358q-31 0 -53.5 -34t-22.5 -81.5t22.5 -81.5t54.5 -33.5t54 34t22 81t-22.5 81.5t-54.5 34v0zM263 89q0 -5 1 -9t3 -8t4.5 -7t6 -6t7 -4.5t8 -2.5t8.5 -1h115q16 0 27.5 11t11.5 27q0 25 -23 35q-32 -35 -73 -35t-73 35
q-23 -10 -23 -35v0zM627 473h-231q-5 0 -9.5 2.5t-7 7t-2.5 9.5q0 8 5.5 13.5t13.5 5.5h20v38l-1 39v19v38q0 26 13 48.5t35 35t48 12.5q40 1 68 -27.5t28 -67.5v-39v-19v-38v-39h20q5 1 9.5 -2t7 -7t2.5 -9.5t-2.5 -10t-7 -7t-9.5 -2.5v0zM569 550v38v19v39q0 23 -17 40
t-41 17t-40.5 -17t-16.5 -41v-38v-19v-38v-39h115v39v0zM511 626q-5 0 -9.5 2.5t-7 7t-2.5 10.5q0 3 1.5 7t4 6.5t6 4t7.5 1.5q8 0 13.5 -5.5t5.5 -13.5q0 -6 -2.5 -10t-7 -7t-9.5 -3v0zM511 626z" />
    <glyph glyph-name="uniE606" unicode="&#xe606;" 
d="M115 379q97 331 416 359q4 0 25 0.5t32 2.5q7 2 15.5 5.5t20 9t17.5 7.5q26 11 53.5 20t66 17.5t72 11t68 -4.5t57.5 -26q34 -27 45 -78t1.5 -104.5t-31.5 -99.5q66 -133 45 -279q-60 -6 -325 -4.5t-321 0.5q6 -81 53 -136t120 -63q123 -15 209 105h247
q-25 -71 -67.5 -129t-101.5 -101t-139 -64t-172 -14q-59 4 -152 40q-36 -20 -79 -35.5t-93.5 -26t-95.5 -0.5t-71 44q-63 81 11 286q45 127 125 245.5t168 192.5q0 1 1 2.5t1.5 2.5t0.5 2q-41 -20 -75.5 -48t-84.5 -78zM983 647q-1 35 -19 58t-45.5 31.5t-60 7.5
t-64.5 -10.5t-58 -24.5q125 -50 219 -178l7 23q5 13 8.5 22.5t6.5 21t5 24t1 25.5zM372 346h392q-5 113 -95 160q-77 40 -165 11q-87 -29 -118 -109q-12 -29 -14 -62zM83 -96q6 -32 26.5 -50.5t48.5 -22.5t60 1t61 16.5t51 26.5q-65 37 -111.5 96.5t-86.5 143.5
q-2 -7 -8.5 -21.5t-10 -24t-9.5 -25.5t-9.5 -27.5t-7 -27t-5 -29t-1.5 -28t2 -28.5z" />
    <glyph glyph-name="uniE607" unicode="&#xe607;" horiz-adv-x="3272" 
d="M701 580h478v-99h-478v99zM701 405h478v-98h-478v98zM705 227h303v-99h-303v99zM460 241q45 0 84 36t58 81t19 82v33q0 12 -3.5 35t-9 37.5t-17.5 32.5t-28.5 28.5t-43 18.5t-59.5 8t-59.5 -8t-43 -18.5t-28.5 -28.5t-18 -32.5t-9 -37.5t-3.5 -35t-0.5 -33
q0 -37 19.5 -82t58.5 -81t84 -36v0zM460 241zM648 188q-18 9 -38 18.5t-30 14.5l-11 5l-78 -143l-11 34l21 43l-42 43l-43 -43l21 -43l-13 -35l-76 144q-13 -6 -34 -16t-65 -33t-62 -37t-33 -47.5t-21 -56.5t-6 -26h521v178zM1454 199q-71 70 -172 70t-171 -70
q-36 -36 -53.5 -78t-17.5 -92q0 -100 71 -170q70 -71 171.5 -71t172 70.5t70.5 170.5q0 99 -71 170v0zM1269 -82q-11 -8 -24 -8t-23 8l-103 101q-20 18 -3 40q16 22 38 12q6 -2 11 -7l80 -79l155 152q9 11 22.5 10.5t23.5 -10.5q6 -6 8.5 -14t0 -16.5t-8.5 -13.5zM1088 -164
q-12 12 -22.5 26t-19.5 30h-901q-19 0 -32.5 13t-13.5 31v729q0 19 13.5 32t32.5 13h1093q20 0 33.5 -13t13.5 -32v-365q51 -1 98 -19v475q0 16 -7 28.5t-19.5 20t-26.5 7.5h-1276q-23 0 -38.5 -16.5t-15.5 -39.5v-911q0 -23 15.5 -39t38.5 -16h1097q-38 20 -63 46z
M1340 812v-517q26 -5 50 -15t45.5 -25t41.5 -34q80 -80 80 -192q0 -56 -20 -104.5t-60 -87.5q-10 -10 -21.5 -19t-22.5 -16t-24 -14h1863v1024h-1932zM2489 549q9 -19 17.5 -38t15.5 -39.5t12 -42.5h-69q-12 58 -43 120h67zM1882 551q15 -31 25.5 -61t18.5 -59h-72
q-12 53 -41 120h69zM1779 336v50h135v-264q9 5 25.5 14t38.5 22l-14 -9l24 14v-60q-62 -43 -149 -74v307h-60zM2326 5q-75 65 -118.5 136t-56.5 149q-15 -79 -59 -150.5t-119 -134.5v57q142 185 137 448v39h82v-39q-5 -261 134 -448v-57zM2393 336v50h122v-261q26 9 62 33
v-55q-22 -20 -55.5 -38.5t-78.5 -35.5v307h-50zM2954 29h-408v45h60v314h70v-314h67v401h-168v50h369v-50h-125v-149h108v-50h-108v-202h135v-45zM1299 528q-2 -8 -5 -22.5t-13.5 -53.5t-22.5 -71t-32 -65t-42 -47q6 5 16 11t43 14.5t67 3.5z" />
    <glyph glyph-name="uniE608" unicode="&#xe608;" 
d="M1006 -193q-1 -2 -3 -5t-11.5 -8.5t-23.5 -5.5q-5 0 -9.5 0.5t-8 1.5t-6.5 2.5t-5 3t-3.5 3.5t-2.5 3l-2 2l-1 2v1q-1 20 -3 52t-16.5 99t-37.5 95q-31 39 -87.5 89.5t-81.5 70t-40 30.5q2 2 6.5 5.5t16 16.5t22.5 27.5t24 38.5t22.5 49t16 59t6.5 70q0 45 -15.5 83.5
t-37.5 63.5t-51.5 45t-51.5 30t-45 17q-11 -12 -27 -12q-9 0 -18 5q-9 -5 -17 -5q-10 0 -21 7q-10 -7 -20 -7q-8 0 -15 3t-12 9q-23 -7 -45 -17t-51.5 -30t-51.5 -45t-37.5 -63.5t-15.5 -83.5q0 -36 6.5 -70t16.5 -59.5t22 -48.5t24 -38.5t22 -27t17 -16.5l6 -6
q-15 -11 -40 -30.5t-81.5 -70t-87.5 -89.5q-47 -58 -56 -234q-1 -7 -1 -12q-1 -2 -3 -5t-11.5 -8.5t-23.5 -5.5t-23.5 4.5t-11.5 9.5l-3 5q2 3 0 20.5t3 53.5t13 73t29 80.5t50 75.5q51 55 89 88.5t51 38.5l12 6q-4 4 -10.5 12t-22.5 34.5t-28.5 55.5t-23 73.5t-10.5 90.5
q0 47 18.5 93.5t50 83.5t70.5 66t82 44.5t83 15.5q10 0 20 -7q11 7 21 7q8 0 17 -5q5 2 9 3.5t9 1.5q50 0 104 -25t98 -65.5t73 -97.5t29 -115q0 -139 -82 -249l-13 -17q1 0 4.5 -1.5t16 -9.5t28.5 -21t43.5 -39.5t59.5 -61.5q95 -103 95 -303z" />
    <glyph glyph-name="uniE609" unicode="&#xe609;" horiz-adv-x="1304" 
d="M1118 294q-9 0 -17 -4.5t-12.5 -12.5t-4.5 -17v-321q0 -20 -10 -37t-27 -27t-38 -10h-716q-31 0 -53 21.5t-22 52.5v674q0 31 22 53t53 22h234q14 0 23.5 10t9.5 24t-9.5 24t-23.5 10h-234q-59 0 -100.5 -42t-41.5 -101v-674q0 -29 11 -55.5t30 -45.5t45.5 -30t55.5 -11
h716q59 0 101 41.5t42 100.5v321q0 5 -1.5 9.5t-3.5 8t-5 6.5t-7 5.5t-8 3.5t-9 1zM406 95q-3 -14 5 -25.5t22 -13.5q3 -1 6 -1q5 0 9.5 1.5t8.5 4t7 5.5t5.5 7.5t2.5 9.5q3 15 10.5 44t38.5 104t72 138q83 124 197 195q108 68 244 84l-111 -114q-10 -11 -9.5 -25t10.5 -23
q5 -5 11 -7.5t13 -2.5q2 0 5 0.5t5.5 1t4.5 2t4.5 3t4.5 3.5l171 177q1 0 1 1v0h1v1l1 1v0l1 1v1v0l1 1v0v1l1 1v0v1l1 1v1l1 1v1v1v1h1v1v0v1v1v1v0v1l1 1v0v1v0v1v0v2v1l-1 1v0v0v1v1v1v0v0v1v0v1h-1v1v1v1l-1 1v0v1v0v0l-1 1q0 1 -1 2q0 1 -1 1v1v0v1h-1v1q-1 0 -1 1v0
l-1 1v0l-1 1q-1 1 -1 2h-1l-1 1l-1 1h-1v1h-1l-1 1v0h-1h-1v1h-1l-1 1h-1h-1q0 1 -1 1l-249 82q-14 5 -26.5 -1.5t-16.5 -19.5q-3 -9 -1.5 -17.5t7.5 -15.5t15 -10l100 -33q-110 -24 -204 -82q-127 -79 -217 -216q-21 -31 -39.5 -65t-31 -62t-23.5 -57.5t-17 -49.5
t-11.5 -39.5t-7 -26.5t-1.5 -11zM406 95z" />
    <glyph glyph-name="uniE60A" unicode="&#xe60a;" 
d="M1021 414q-13 42 -73 63h-1l-216 59q-16 25 -36 55.5t-33 49.5t-37.5 57t-33.5 52h-1v1q-11 16 -24 27t-27 16.5t-28 5.5q-45 0 -78 -51l-120 -196q-36 -10 -161 -49l-79 -24q-55 -17 -69 -57q-7 -20 -2 -44.5t22 -52.5q1 -2 2 -3q63 -79 141 -179q-3 -135 -7 -258
q-5 -61 18 -89q9 -10 21.5 -15.5t28.5 -5.5q12 0 26.5 3.5t34.5 10.5l207 84q99 -37 236 -88q12 -4 22.5 -5.5t20.5 -1.5q13 0 25 3.5t25.5 13.5t22 32t10.5 54v3q-4 66 -13 230v1l153 206q35 51 23 92v0zM959 353l-158 -213q-3 -4 -4.5 -8.5t-0.5 -8.5v-11q10 -165 13 -229
q0 -12 -2 -22t-5.5 -15.5t-6 -9t-7 -4.5t-7 -1.5t-6.5 -0.5q-12 0 -28 5q-161 60 -243 91q-3 1 -6 1h-5q-3 0 -6 -1l-215 -88q-10 -4 -18 -6t-14.5 -3.5t-11.5 -1.5q-4 0 -6.5 0.5t-4 1.5l-1.5 1l-2 2q-2 2 -3.5 6.5t-3 15.5t0.5 28v2q4 135 8 268q0 3 -0.5 6.5t-2 6
t-3.5 5.5q-67 85 -146 185q-20 34 -14 50q3 9 13 15.5t24 10.5l78 24q114 35 170 52q9 2 14 10l124 203q19 29 38 29q20 0 40 -29l20 -30q18 -27 22.5 -34t19.5 -29.5t22 -33.5t19.5 -29.5t22.5 -34t20 -30.5q2 -4 5.5 -6.5t7.5 -4.5l224 -60q36 -13 41 -30q1 -5 0 -12
t-5 -15.5t-11 -17.5v0zM959 353z" />
    <glyph glyph-name="uniE60B" unicode="&#xe60b;" 
d="M512 -212l-88 104q-261 323 -292 496q-4 22 -4 40q0 104 51.5 192.5t140 140t192.5 51.5t192.5 -51.5t140 -140t51.5 -192.5q0 -43 -22 -102.5t-53.5 -116.5t-76 -122.5t-81 -113t-76 -96t-53.5 -64.5t-22 -25v0zM512 763q-91 0 -168 -45.5t-122 -124t-45 -170.5
q0 -52 34.5 -130t83.5 -151t99 -139t83.5 -106t34.5 -40q14 15 36.5 42t80 102t101.5 142.5t80.5 147.5t36.5 132q0 69 -26.5 132t-71.5 108.5t-107 72.5t-130 27zM512 300q-66 0 -113 47t-47 113t47 113t113 47q33 0 62.5 -12.5t51 -34t34 -51t12.5 -62.5q0 -66 -47 -113
t-113 -47zM512 576q-49 0 -83.5 -35t-34.5 -83.5t34.5 -83.5t83.5 -35t83.5 35t34.5 83.5t-34.5 83.5t-83.5 35zM512 576z" />
    <glyph glyph-name="uniE60C" unicode="&#xe60c;" 
d="M1023 499q-4 11 -15 14l-309 76l-169 271q-3 6 -10.5 8t-14.5 0t-11 -8l-168 -271l-309 -76q-4 -1 -7 -3t-5 -5t-3 -6q-4 -11 4 -20l205 -244l-23 -318q0 -3 1 -6.5t3 -6.5t5 -5.5t6.5 -3.5t7 -0.5t6.5 1.5l295 120l295 -120q2 -1 4 -1h4q7 0 13 4q9 6 8 18l-22 318
l205 243q7 10 4 21v0zM776 255q-5 -6 -5 -15l21 -292l-272 110q-2 1 -4 1.5t-4 0.5q-4 0 -8 -2l-271 -110l20 292q1 3 0.5 5.5t-2 5t-3.5 4.5l-188 225l284 70q3 1 5.5 2.5t4.5 3t3 4.5l155 248l155 -248q6 -7 13 -10l285 -70zM776 255z" />
    <glyph glyph-name="uniE60D" unicode="&#xe60d;" 
d="M961 268v35h-1l-422 422v1l-25 25v-1v1l-25 -25v-1l-423 -422h1h-1v-35h107v-413v-1h682v1v341h-1v0q0 7 -5 12.5t-12 5.5q-5 0 -9 -2.5t-6.5 -6.5t-2.5 -9v0v-306h-180v234h-250v-234h-180v413v0h-93l398 398l398 -398h-75q-8 0 -13 -5t-5 -12q0 -4 1.5 -7t4 -5.5
t5.5 -4t7 -1.5v0h125zM423 88h180v-198h-180v198z" />
    <glyph glyph-name="uniE60E" unicode="&#xe60e;" 
d="M153 -40q-15 0 -20 14q-7 15 6 26q50 38 50 78q0 6 -1 11t-2.5 9t-3.5 7t-5 5q-36 29 -61 64t-37.5 73t-12.5 78q0 88 59.5 163t162.5 118.5t224 43.5t224 -43.5t162.5 -118.5t59.5 -163q0 -53 -22.5 -102.5t-64 -89.5t-96 -70t-123 -46.5t-140.5 -16.5q-88 0 -170 24
q-1 0 -21 -11q-80 -43 -166 -52q-1 -1 -2 -1zM512 606q-109 0 -202 -37.5t-147 -102.5t-54 -141q0 -103 96 -182q29 -23 28 -65q0 -32 -19 -62q40 10 86 36q11 6 16.5 8.5t13 5t14.5 2.5q6 0 11 -2q75 -22 157 -22q109 0 201.5 37.5t146.5 102.5t54 141q0 57 -31.5 109
t-85.5 89.5t-128.5 60t-156.5 22.5zM302 327zM261 327q0 17 12 29.5t29 12.5t29.5 -12.5t12.5 -29.5t-12.5 -29t-29.5 -12t-29 12t-12 29zM512 327zM470 327q0 17 12.5 29.5t29.5 12.5t29 -12.5t12 -29.5t-12 -29t-29 -12t-29.5 12t-12.5 29zM698 327zM657 327q0 5 1 9.5
t3 8.5t5 8t6.5 6.5t7.5 4.5t8.5 3.5t9.5 1.5q17 0 29.5 -12.5t12.5 -29.5q0 -5 -1.5 -9.5t-3.5 -8.5t-4.5 -7.5t-6.5 -6.5t-8 -5t-8.5 -3t-9.5 -1q-17 0 -29 12t-12 29z" />
    <glyph glyph-name="uniE60F" unicode="&#xe60f;" 
d="M1024 162q0 55 -36 79q12 6 24 32.5t12 51.5q-1 45 -41 74t-104 29h-229q29 80 24 175t-42 152q-36 57 -89 57q-17 0 -31 -4.5t-22.5 -11.5t-15 -17.5t-10 -20t-5 -21t-2 -18t-0.5 -14.5q0 -63 -7.5 -100t-22.5 -71q-8 -15 -32 -38.5t-64 -45.5t-77 -22h-153
q-29 0 -52 -15.5t-36 -42.5t-13 -62l39 -416q8 -103 100 -103q32 -1 55 -1q9 0 17 0.5t13 0.5q19 0 50 23l2 2l9 6q3 2 7 4t7 2q1 0 7 -3t17 -8t20 -9q43 -18 95 -18h319q52 0 87.5 13t53 36.5t17.5 57.5q0 14 -3.5 24.5t-12.5 21.5q35 9 58 30t23 54q0 4 -0.5 9t-2 10.5
t-3 10.5t-3.5 9.5t-5 8t-5 4.5q19 5 41 31t22 54zM222 -169h-88q-18 0 -32.5 15t-18.5 39l-40 433q0 25 18 46.5t43 21.5l150 -1h4q2 1 3 1v-530q-3 -3 -6.5 -5t-6.5 -4l-4 -4l-6 -4l-6 -4q-3 -2 -5.5 -3t-4.5 -1zM921 106h-6v-39q5 -2 8.5 -4t8.5 -11.5t5 -24.5
q0 -25 -26.5 -38t-60.5 -13l-1 -37q23 -5 22 -40q0 -68 -115 -68h-330q-12 0 -32 5.5t-34 12.5q-7 3 -55 29v515q38 10 75.5 35.5t60.5 49.5t32 42q10 23 16 46.5t9.5 59t3.5 84.5q0 34 10 45t27 11q4 0 9.5 -1.5t10.5 -4t10.5 -6.5t10.5 -8.5t9.5 -9.5t8.5 -10
q20 -33 29 -84t2 -111.5t-32 -109.5l-9 -36h293q19 -1 36.5 -5.5t31.5 -11.5t23 -18t9 -25l-1 -11v-2t-0.5 -5t-1 -7t-2 -8t-3.5 -8.5t-4.5 -8.5t-6.5 -7t-8 -5.5t-7 -3.5t-5.5 -1.5t-3.5 -1.5h-1v-38q17 -2 25 -8q20 -14 19 -45q-1 -12 -11 -26t-24 -23.5t-25 -9.5z" />
    <glyph glyph-name="uniE610" unicode="&#xe610;" 
d="M743 399q-10 2 -15 5.5t-6 7t-0.5 6.5t2.5 5l1 2q2 2 4 6t5.5 16t4 23t-4 25.5t-15.5 26.5q-11 10 -26 15t-31 5.5t-33 -2t-31.5 -7t-26.5 -8.5t-19 -7l-7 -3q-10 -3 -16.5 -4t-10.5 0.5t-5.5 3t-1.5 7t0.5 9.5t2.5 13t3 14q0 10 -1 19.5t-4.5 20.5t-9.5 19.5t-16.5 15
t-25 9t-35.5 0t-47 -11.5q-35 -12 -71.5 -36.5t-64 -50.5t-50 -50t-34.5 -40l-12 -15q-33 -45 -48.5 -89t-16.5 -66t0 -22q20 -179 274 -219q32 -5 65 -8q76 -6 157 12t151.5 62t98.5 105q15 31 17.5 58t-4.5 46t-19 34.5t-27.5 25t-28 15t-22.5 7.5zM431 82q-54 -3 -103 9
t-84.5 34t-56 53.5t-20.5 67.5q0 73 77 125.5t187 57.5q73 4 133.5 -13.5t96.5 -53.5t36 -84q0 -74 -78.5 -132.5t-187.5 -63.5zM402 365q-30 -4 -53.5 -14.5t-37 -24t-22.5 -30.5t-12.5 -30.5t-4.5 -28.5t-0.5 -20t0.5 -7v-3q0 -2 0.5 -7t2 -9.5t4.5 -11.5t7 -12.5
t10.5 -12t14.5 -10.5q67 -33 125.5 -20t94.5 59q14 18 18.5 43t-2 51t-23 48t-48.5 33.5t-74 6.5zM365 171q-13 -1 -24.5 3t-18.5 12.5t-7 20.5q0 18 14 32.5t34 17.5q23 2 37.5 -9.5t14.5 -29.5q0 -17 -14.5 -31t-35.5 -16zM451.5 245.5q-4.5 -3.5 -9.5 -4.5t-9 0.5t-7 5.5
q-4 6 -2.5 14.5t8.5 13.5q4 3 8.5 4.5t8 1t6.5 -2.5t5 -5q2 -4 2 -9t-3 -10t-7.5 -8.5zM815 459q9 0 15.5 6t8.5 14v3q4 33 -1.5 58t-17 39t-26 23t-30 12t-28.5 3.5t-21 -0.5l-9 -1q-10 0 -17 -7t-7 -17.5t7 -17.5t17 -7q32 7 50.5 1t26 -20t9.5 -28.5t0 -25.5l-1 -11
q0 -4 1 -7.5t3.5 -6.5t5.5 -5.5t6.5 -3.5t7.5 -1zM797 741q-18 5 -37.5 6t-37.5 -0.5t-26.5 -3t-18.5 -3.5q-1 0 -2 -0.5t-2 -0.5v-1q-12 -3 -19 -12.5t-7 -21.5q0 -7 3 -13.5t7.5 -11.5t11 -7.5t13.5 -2.5h2q2 0 6 1t7.5 1.5t8 2t8.5 2.5q3 2 11 2.5t20 -1t26 -4.5t30 -9.5
t31 -15.5t30 -24t26 -34q27 -60 11 -116q-7 -17 -7 -34q0 -14 10 -23t25 -9q7 0 11.5 1t9.5 4t8 9t5 16q18 57 13.5 103t-20 80t-43 59t-56 39.5t-58.5 21.5z" />
    <glyph glyph-name="uniE611" unicode="&#xe611;" 
d="M954 284q0 93 -78 158.5t-189 65.5q-72 0 -133.5 -30t-97.5 -81.5t-36 -112.5q0 -46 21 -87.5t57 -71.5t85.5 -47.5t103.5 -17.5q62 0 117 22l81 -42l-24 74q21 15 38.5 34t29.5 40.5t18.5 46t6.5 49.5zM593 333q-9 0 -17 4.5t-13 12t-5 17.5q0 14 10.5 24t24.5 10
q6 0 11 -2t9.5 -5t7.5 -7t5 -9.5t2 -10.5t-1.5 -9.5t-3.5 -8t-5.5 -7t-7 -5.5t-8 -3t-9.5 -1zM781 333q-6 0 -11 1.5t-9.5 4.5t-7.5 7.5t-5 9.5t-2 11q0 9 5 17t13 12.5t17 4.5q14 0 24.5 -10t10.5 -24t-10.5 -24t-24.5 -10zM687 528q8 0 16 -1q-16 96 -103.5 160.5
t-204.5 64.5q-129 0 -220 -77.5t-91 -186.5q0 -61 31 -114.5t86 -90.5l-30 -102l110 62q27 -9 55.5 -13.5t58.5 -4.5h14q-9 29 -9 59q0 101 84 172.5t203 71.5zM519.5 615q16.5 0 28 -11.5t11.5 -27.5q0 -11 -5.5 -20t-14.5 -14.5t-20 -5.5q-16 0 -28 11.5t-12 28t12 28
t28.5 11.5zM271.5 536q-16.5 0 -28 11.5t-11.5 28t11.5 28t28.5 11.5q11 0 20 -5t14.5 -14.5t5.5 -19.5q0 -17 -12 -28.5t-28.5 -11.5z" />
    <glyph glyph-name="uniE612" unicode="&#xe612;" 
d="M480 680l-361 -376q-7 -8 -7 -18t7 -17.5t17 -7.5t17 8l359 374l359 -374q5 -5 11 -6.5t12 0t11 6.5q7 7 7 17t-7 18l-361 376q-6 6 -16 13.5t-15 6.5q-11 5 -33 -20zM247 259q-11 0 -21 -7t-10 -17v-273q0 -17 8.5 -31.5t23 -23t31.5 -8.5h466q26 0 44.5 18.5t18.5 44.5
v273q0 24 -15 24q-10 0 -18.5 -7t-8.5 -17v-240q0 -14 -7.5 -26.5t-20 -19.5t-26.5 -7h-400q-14 0 -26.5 7t-20 19.5t-7.5 26.5v240v6v5v4q0 3 -1 4t-2 2.5t-3 2t-5 0.5zM247 259z" />
    <glyph glyph-name="uniE613" unicode="&#xe613;" 
d="M903 231h-280l290 290q22 -65 22 -132q0 -82 -32 -158zM704 763q67 -34 118 -88.5t80 -123.5l-198 -199v411zM516 808q42 0 81.5 -8t77.5 -23v-281l-290 291q64 21 131 21zM142 577q34 67 89 118t124 80l198 -198h-411zM119 258q-21 64 -21 131q0 83 31 159h280zM329 346
v-330q-67 33 -118.5 88t-80.5 124l199 199v-81zM647 -8q-31 -10 -64 -15.5t-67 -5.5q-82 0 -159 31v280zM479 202h95h316q-11 -22 -25 -43t-30 -39.5t-34 -35.5t-37.5 -31.5t-41.5 -27t-45 -22.5z" />
    <glyph glyph-name="uniE614" unicode="&#xe614;" 
d="M512 -171l-72 72q-69 61 -109 97t-93.5 87.5t-83 85.5t-64 78.5t-51 80.5t-28 77t-11.5 82q0 119 81.5 200.5t200.5 81.5q65 0 126.5 -28.5t103.5 -78.5q21 24 47.5 44t56 34t62 21.5t64.5 7.5q119 0 200.5 -81.5t81.5 -200.5q0 -41 -11.5 -82t-28 -77t-51 -80.5
t-64 -78.5t-83 -85.5t-93.5 -87.5t-109 -97z" />
    <glyph glyph-name="uniE615" unicode="&#xe615;" 
d="M729 770q-128 0 -217 -119q-43 58 -97 88.5t-120 30.5q-60 0 -114.5 -25t-94 -68t-63 -102.5t-23.5 -124.5q0 -38 7 -72t22.5 -66.5t26 -51t30.5 -49.5q17 -28 41.5 -58t50.5 -57.5t54.5 -54.5t57 -51.5t54 -46t49.5 -40t40 -30.5t29 -21l12 -9q8 -7 18 -10t20 -3
q21 0 38 13l12 9q13 9 29 21t40 30.5t49.5 40t54 46t56.5 51.5t54.5 54.5t50.5 57.5t42 58q20 31 30.5 49.5t26 51t22.5 66.5t7 72q0 87 -39.5 160.5t-107.5 116.5t-148 43v0zM891 251q-90 -140 -331 -322q-47 -36 -49 -36q-11 8 -30 22t-71.5 55.5t-98.5 82.5t-98 96
t-82 102q-8 12 -13 20.5t-12 20.5t-12 21t-10.5 21t-9.5 22t-7.5 22.5t-6 24t-3.5 24.5t-1 26q0 106 68.5 180.5t165.5 74.5q70 0 121 -41t80 -111v1q2 -7 7.5 -11.5t12.5 -4.5q3 0 5.5 0.5t5 2t4.5 3.5t3 4.5t2 5.5q29 69 80.5 110t120.5 41q97 0 166 -74.5t69 -180.5
q0 -54 -19 -98.5t-57 -103.5v0z" />
    <glyph glyph-name="uniE616" unicode="&#xe616;" 
d="M910 -100q-1 1 -4 3h-1l-176 176l3 3l2 2q36 36 60.5 79t36 88.5t11.5 94t-11.5 94t-36 88.5t-60.5 79q-53 53 -122 81t-139 28t-139 -28t-123 -81q-71 -71 -96 -166t0 -190.5t96 -166.5q65 -65 150.5 -91.5t173 -11.5t159.5 69l181 -181l1 -1v-2l2 -1q1 -1 2 -1l1 -1
q5 -3 10 -3.5t10 1t9 5.5q5 5 6.5 11t0 12t-6.5 11zM239 111q-48 48 -73 110t-25 125t25 125t72.5 109.5t110 72.5t125 25t124.5 -25t110 -72.5t73 -109.5t25 -125t-25 -125t-73 -110q-38 -38 -85.5 -62t-98.5 -31t-101.5 0t-98 31t-85.5 62z" />
    <glyph glyph-name="uniE617" unicode="&#xe617;" 
d="M59 762h902v-61h-902v61zM59 387h902v-62h-902v62zM59 11h902v-61h-902v61z" />
    <glyph glyph-name="uniE618" unicode="&#xe618;" 
d="M877 630h-572h572zM877 599h-572q-3 0 -6 0.5t-6 2t-5.5 3t-4.5 3.5t-3.5 4.5t-2.5 5.5l-2 6q-1 3 -1 6q0 6 2.5 11.5t6.5 10t10 7t12 2.5h572q8 0 15 -4.5t11.5 -11.5t4.5 -15q0 -6 -2.5 -12t-6.5 -10t-10 -6.5t-12 -2.5zM877 303h-572h572zM877 272h-572q-6 0 -12 2.5
t-10 6.5t-6.5 10t-2.5 12t2.5 11.5t6.5 10t10 7t12 2.5h572q13 0 22 -9t9 -22t-9 -22t-22 -9zM877 -24h-572h572zM877 -55h-572q-13 0 -22 9t-9 22q0 8 4 15t11.5 11t15.5 4h572q13 0 22 -9t9 -21.5t-9 -21.5t-22 -9zM166 -24zM114 -24q0 21 15 36t36.5 15t36.5 -15t15 -36
q0 -14 -7 -26t-18.5 -19t-25.5 -7q-22 0 -37 15.5t-15 36.5zM166 300zM114 300q0 22 15 37t37 15q8 0 16 -2.5t14 -7.5t11 -11.5t7.5 -14t2.5 -16.5q0 -21 -15 -36t-36 -15q-14 0 -26 7t-19 18.5t-7 25.5zM166 630zM114 630q0 14 7 25.5t19 18.5t26 7q21 0 36 -15t15 -36
q0 -14 -7 -26t-18.5 -18.5t-25.5 -6.5q-22 0 -37 15t-15 36z" />
    <glyph glyph-name="uniE619" unicode="&#xe619;" 
d="M1023 499q-4 11 -15 14l-309 76l-169 271q-3 6 -10.5 8t-14.5 0t-11 -8l-168 -271l-309 -76q-4 -1 -7 -3t-5 -5t-3 -6q-4 -11 4 -20l205 -244l-23 -318q0 -3 1 -6.5t3 -6.5t5 -5.5t6.5 -3.5t7 -0.5t6.5 1.5l295 120l295 -120q2 -1 4 -1h4q7 0 13 4q9 6 8 18l-22 318
l205 243q7 10 4 21v0z" />
    <glyph glyph-name="uniE61A" unicode="&#xe61a;" 
d="M586 730q4 0 8 -1t8 -2.5t7.5 -4t6.5 -6t5.5 -7t4.5 -8t3 -8.5l3 -13q2 -14 3.5 -28.5t1.5 -28.5q0 -69 -14 -110l-24 -72h76q180 -1 194 -1q23 -1 33 -18q8 -14 7 -31q-2 -14 -19 -92t-34.5 -156.5t-22.5 -98.5q-3 -5 -6.5 -9.5t-8.5 -6.5q-10 -7 -15 -7h-443l1 401
q81 25 133 93.5t55 153.5v3v2v1v5q0 39 25 48q6 2 12 2zM219 409v-389h-74v389h74zM586 785q-21 0 -38 -8.5t-29 -23t-18.5 -33.5t-6.5 -40v-3v-3v-4q-1 -52 -27 -97t-68.5 -73t-92.5 -34v-500h10v0h487q21 0 45 16t36 42q1 1 20.5 87t39 176t20.5 99q2 34 -15 64
q-25 42 -78 44l-196 2q16 49 16 127q0 10 -0.5 20.5t-1.5 21t-2.5 20.5t-3.5 19h-1q-2 12 -7 22.5t-12 19t-15.5 16t-18.5 12.5t-21 8t-22 3zM235 464h-106q-16 0 -27 -11.5t-11 -28.5v-419q0 -16 11 -27.5t27 -11.5h106q16 0 27 11.5t11 27.5v419q0 8 -3 15.5t-8 13
t-12 8.5t-15 3zM316 -34v0v0v0v0z" />
    <glyph glyph-name="uniE61B" unicode="&#xe61b;" 
d="M199 435h-94q-11 0 -20.5 -5.5t-15 -15t-5.5 -20.5v-501q0 -17 12 -29t29 -12h94q8 0 16 3.5t13.5 9t8.5 13t3 15.5v501q0 11 -5.5 20.5t-15 15t-20.5 5.5zM915 427h-1q-21 6 -63 7t-263 1q17 50 21 75.5t4 78.5q0 61 -35 111q-33 48 -66 48q-6 0 -11.5 -2t-10 -4.5
t-8.5 -6.5t-6 -8.5t-3.5 -9.5t-1.5 -10q0 -22 -10 -48t-31 -59t-36 -54t-42 -57q-7 -8 -16 -20t-14.5 -19t-12 -16.5t-10.5 -15t-8.5 -12.5t-6.5 -12t-3.5 -9.5t-1.5 -8.5v-467l8 -2q4 -1 9 -2.5t19 -5t43 -10t73 -16.5v-1q90 -20 176 -20h171q7 0 13 1t11.5 2t10.5 3
t9.5 4.5t8 5.5t6.5 7t6 9q27 38 53 112q55 151 63 349v8q1 6 1 13q0 19 -11 37t-34 24z" />
    <glyph glyph-name="uniE61C" unicode="&#xe61c;" 
d="M512 812q-139 0 -257 -68.5t-186.5 -186.5t-68.5 -257t68.5 -257t186.5 -186.5t257 -68.5t257 68.5t186.5 186.5t68.5 257t-68.5 257t-186.5 186.5t-257 68.5zM512 -148q-122 0 -225 60t-163 163t-60 225t60 225t163 163t225 60t225 -60t163 -163t60 -225t-60 -225
t-163 -163t-225 -60zM783 397q0 20 -14 34t-34 14q-9 0 -18 -4t-15 -10l-255 -255l-157 158q-7 7 -15.5 10.5t-18.5 3.5q-20 0 -34 -14t-14 -34t14 -34l192 -192q14 -14 33 -14q5 0 10 1t9 3t8 4.5t7 5.5l288 289q14 14 14 34z" />
    <glyph glyph-name="uniE61D" unicode="&#xe61d;" 
d="M512 893q-103 0 -197.5 -40.5t-162.5 -108.5t-108.5 -162.5t-40.5 -197.5t40.5 -197.5t108.5 -162.5t162.5 -108.5t197.5 -40.5t197.5 40.5t162.5 108.5t108.5 162.5t40.5 197.5t-40.5 197.5t-108.5 162.5t-162.5 108.5t-197.5 40.5zM512 -86q-96 0 -183 37.5t-149.5 100
t-100 149.5t-37.5 183t37.5 183t100 149.5t149.5 100t183 37.5t183 -37.5t149.5 -100t100 -149.5t37.5 -183q0 -77 -24 -148.5t-67.5 -129t-101 -101t-129 -67.5t-148.5 -24zM703 533l-252 -269l-92 98q-8 8 -18.5 8t-17.5 -8q-5 -5 -6.5 -12t0 -14t6.5 -12l128 -136
l288 307q7 8 7 19t-7 19q-2 2 -4.5 4t-5.5 3t-5 1h-6q-3 0 -5.5 -1t-5 -3t-4.5 -4z" />
    <glyph glyph-name="uniE620" unicode="&#xe620;" 
d="M1021 510q-13 42 -73 63h-1l-216 59q-31 48 -140 214h-1v1q-35 49 -79 49q-19 0 -39 -11.5t-39 -40.5l-120 -195q-34 -10 -161 -49l-79 -24q-55 -18 -69 -57q-14 -41 21 -97q1 -2 2 -3q62 -78 141 -179q-4 -136 -8 -258q-5 -61 19 -89q18 -21 49 -21q24 0 61 14l207 84
q38 -14 79 -29t78 -29t79 -29q24 -8 43 -8q10 0 19.5 2t21 8.5t20 17.5t15 30.5t7.5 44.5v2v1q-1 16 -2 32.5t-2 34t-2 31.5t-2 34t-1.5 32t-2 34t-2.5 32v1l153 206q18 25 24 48t0 44zM863 479z" />
  </font>
</defs>
</svg>
